<svg width="731" height="206" viewBox="0 0 731 206" fill="none" xmlns="http://www.w3.org/2000/svg">
<path d="M713.563 42.9617C709.098 42.9617 705.208 41.3672 701.891 38.1782C698.575 34.8617 696.916 30.9073 696.916 26.3152C696.916 21.723 698.575 17.8325 701.891 14.6435C705.208 11.327 709.098 9.6687 713.563 9.6687C718.283 9.6687 722.237 11.327 725.426 14.6435C728.743 17.8325 730.401 21.723 730.401 26.3152C730.401 30.9073 728.743 34.8617 725.426 38.1782C722.237 41.3672 718.283 42.9617 713.563 42.9617ZM700.552 154.321V58.6515H726.765V154.321H700.552Z" fill="#F7F7F7"/>
<path d="M622.889 156.426C611.537 156.426 602.671 152.599 596.293 144.945C590.043 137.292 586.918 127.023 586.918 114.14V58.6514H613.131V109.739C613.131 124.918 618.552 132.508 629.395 132.508C635.518 132.508 640.301 130.212 643.745 125.62C647.317 121.028 649.103 114.267 649.103 105.338V58.6514H675.316V154.321H649.103V143.415C643.235 152.089 634.497 156.426 622.889 156.426Z" fill="#F7F7F7"/>
<path d="M475.303 156.426C460.634 156.426 448.579 151.706 439.14 142.266C429.828 132.827 425.172 120.836 425.172 106.295C425.172 92.0081 429.892 80.1451 439.331 70.7057C448.898 61.2663 460.953 56.5466 475.494 56.5466C490.164 56.5466 502.345 61.5852 512.04 71.6624C521.734 81.612 526.199 95.2609 525.434 112.609H450.812C451.322 118.604 453.809 123.643 458.274 127.725C462.738 131.679 468.861 133.656 476.642 133.656C481.362 133.656 485.508 132.763 489.079 130.977C492.779 129.064 495.394 126.449 496.924 123.133H524.286C521.479 132.955 515.612 140.991 506.683 147.241C497.753 153.364 487.293 156.426 475.303 156.426ZM474.729 77.7852C468.734 77.7852 463.695 79.3797 459.613 82.5687C455.659 85.6301 453.044 89.9034 451.768 95.3884H496.733C495.33 89.3931 492.523 84.9923 488.314 82.186C484.232 79.2522 479.704 77.7852 474.729 77.7852Z" fill="#F7F7F7"/>
<path d="M397.658 142.075C387.836 151.642 375.973 156.426 362.069 156.426C348.165 156.426 336.302 151.642 326.48 142.075C316.658 132.381 311.747 120.518 311.747 106.486C311.747 92.5821 316.658 80.7829 326.48 71.0884C336.302 61.3939 348.165 56.5466 362.069 56.5466C375.973 56.5466 387.836 61.3939 397.658 71.0884C407.48 80.7829 412.391 92.5821 412.391 106.486C412.391 120.518 407.48 132.381 397.658 142.075ZM362.069 131.934C368.83 131.934 374.442 129.574 378.907 124.855C383.499 120.007 385.795 113.885 385.795 106.486C385.795 99.0876 383.499 93.0286 378.907 88.3089C374.442 83.4616 368.83 81.038 362.069 81.038C355.181 81.038 349.441 83.4616 344.849 88.3089C340.384 93.0286 338.152 99.0876 338.152 106.486C338.152 113.885 340.384 120.007 344.849 124.855C349.441 129.574 355.181 131.934 362.069 131.934Z" fill="#F7F7F7"/>
<path d="M292.739 58.6515V161.592C292.739 172.817 289.358 181.363 282.598 187.231C275.837 193.226 267.354 196.224 257.15 196.224C252.558 196.224 248.986 195.969 246.435 195.459V173.072C248.221 173.327 249.879 173.455 251.41 173.455C261.487 173.455 266.525 168.097 266.525 157.382V58.6515H292.739ZM279.536 42.9617C275.072 42.9617 271.181 41.3672 267.865 38.1782C264.548 34.8617 262.89 30.9073 262.89 26.3152C262.89 21.723 264.548 17.8325 267.865 14.6435C271.181 11.327 275.072 9.6687 279.536 9.6687C284.256 9.6687 288.21 11.327 291.399 14.6435C294.716 17.8325 296.374 21.723 296.374 26.3152C296.374 30.9073 294.716 34.8617 291.399 38.1782C288.21 41.3672 284.256 42.9617 279.536 42.9617Z" fill="#F7F7F7"/>
<path d="M10.1275 162.443C11.8363 162.443 13.6354 161.904 15.434 160.645V64.4065C15.434 61.1688 16.0637 59.9097 18.9419 58.3804L102.318 10.3518C102.588 4.41563 98.8099 0.728134 93.6834 0.728134C91.3448 0.728134 88.8262 1.35783 86.1281 2.97653L10.7572 46.3284C1.94287 51.4549 0.86377 53.0739 0.86377 63.3274V149.402C0.86377 157.137 4.55123 162.443 10.1275 162.443ZM46.1041 183.22C47.7231 183.22 49.5218 182.68 51.4106 181.421V85.1826C51.4106 81.6756 51.8603 80.7756 54.8283 79.1571L138.204 31.0382C138.474 25.1922 134.786 21.4145 129.57 21.4145C127.321 21.4145 124.713 22.1341 122.105 23.5731L46.5538 67.0148C37.7395 72.0515 36.7502 73.9404 36.7502 84.0136V170.178C36.7502 177.913 40.6176 183.22 46.1041 183.22ZM84.5992 205.165C87.7471 205.165 91.5244 203.906 96.0216 201.388L166.536 160.914C174.811 156.147 178.049 151.2 178.049 141.127L177.869 59.6395C177.869 48.8465 174 43.3601 167.255 43.3601C164.288 43.3601 160.51 44.5297 156.283 46.9577L85.5885 87.7016C77.1338 92.6486 74.1658 97.6846 74.1658 107.489V188.976C74.1658 199.409 77.8533 205.165 84.5992 205.165Z" fill="#F7F7F7"/>
</svg>
