<svg width="518" height="103" viewBox="0 0 518 103" fill="none" xmlns="http://www.w3.org/2000/svg">
<g clip-path="url(#clip0_0_7)">
<path d="M77.3048 64.7249L107.594 84.9213V66.8856L90.8143 55.6845L77.3048 64.7249ZM74.1881 57.4926L83.8833 51.0105L74.1881 44.5285V57.4926ZM115.328 84.9213L145.618 64.7249L132.116 55.6845L115.328 66.8856V84.9213ZM111.461 60.1559L125.125 51.0105L111.461 41.8651L97.7979 51.0105L111.461 60.1559ZM90.8143 46.3516L107.594 35.1355V17.0998L77.3048 37.2962L90.8143 46.3516ZM139.039 51.0105L148.734 57.4926V44.5285L139.039 51.0105ZM132.108 46.3366L145.61 37.2962L115.328 17.0998V35.1355L132.108 46.3366ZM156.468 37.2962V64.7249V64.8374C156.468 66.1353 155.793 67.2795 154.773 67.9322L154.758 67.9397L113.618 95.3721C113.01 95.781 112.264 96.0248 111.457 96.0248C110.651 96.0248 109.905 95.781 109.282 95.3646L109.297 95.3721L68.1572 67.9434C67.122 67.2832 66.4469 66.1391 66.4469 64.8412C66.4469 64.7999 66.4469 64.7624 66.4507 64.7211V64.7286V37.2999C66.4507 37.2662 66.4507 37.2249 66.4507 37.1836C66.4507 35.8857 67.1258 34.7416 68.1459 34.0889L68.1609 34.0814L109.301 6.65271C109.908 6.24383 110.655 6 111.461 6C112.268 6 113.014 6.24383 113.637 6.66021L113.622 6.65271L154.761 34.0814C155.797 34.7416 156.472 35.8857 156.472 37.1836C156.472 37.2249 156.472 37.2624 156.468 37.3037V37.2962Z" fill="white"/>
<path d="M17.3475 83.1639C14.6731 83.1639 11.6734 82.7149 8.34848 81.8169C5.91482 81.1001 3.74417 80.1321 1.83654 78.9126C0.710014 78.1925 0.361399 76.746 0.884481 75.5155C1.7369 73.5104 4.49482 73.0135 6.47046 73.9323C6.58896 73.9874 6.709 74.0412 6.83058 74.0937C8.56533 74.8122 10.3724 75.351 12.2517 75.7102C14.2033 76.0096 15.9019 76.1592 17.3475 76.1592C20.817 76.1592 23.5637 75.4707 25.5875 74.0937C27.6837 72.7167 28.7318 70.771 28.7318 68.2565V29.2283C28.7318 27.5715 27.3886 26.2283 25.7318 26.2283H14.3843C12.7274 26.2283 11.3843 24.8852 11.3843 23.2283V22.2236C11.3843 20.5668 12.7274 19.2236 14.3843 19.2236H34.6224C36.2792 19.2236 37.6224 20.5668 37.6224 22.2236V68.2565C37.6224 72.9263 35.7792 76.5783 32.0928 79.2126C28.4788 81.8468 23.5637 83.1639 17.3475 83.1639Z" fill="white"/>
<path d="M181.209 82.0863C179.552 82.0863 178.209 80.7431 178.209 79.0863V22.2236C178.209 20.5668 179.552 19.2236 181.209 19.2236H197.942C206.688 19.2236 213.338 21.0796 217.891 24.7915C222.445 28.5034 225.047 33.5324 225.698 39.8785C225.842 41.495 225.951 43.2611 226.023 45.1769C226.167 47.0927 226.24 48.9187 226.24 50.655C226.24 52.3912 226.167 54.2172 226.023 56.133C225.951 58.0488 225.842 59.8149 225.698 61.4314C225.119 67.7775 222.517 72.8065 217.891 76.5184C213.338 80.2303 206.688 82.0863 197.942 82.0863H181.209ZM186.883 72.6204C186.883 74.2773 188.226 75.6204 189.883 75.6204H197.942C204.302 75.6204 208.928 74.2135 211.82 71.3996C214.783 68.5858 216.482 64.9936 216.915 60.6232C217.132 58.5876 217.241 56.8514 217.241 55.4146C217.313 53.9777 217.349 52.3912 217.349 50.655C217.349 48.9187 217.313 47.3322 217.241 45.8954C217.241 44.4585 217.132 42.7223 216.915 40.6867C216.482 36.3163 214.783 32.7241 211.82 29.9103C208.928 27.0964 204.302 25.7194 197.942 25.7793H189.883C188.226 25.7793 186.883 27.1225 186.883 28.7793V72.6204Z" fill="white"/>
<path d="M257.405 82.0863C255.748 82.0863 254.405 80.7431 254.405 79.0863V22.2236C254.405 20.5668 255.748 19.2236 257.405 19.2236H295.099C296.756 19.2236 298.099 20.5668 298.099 22.2236V23.2283C298.099 24.8852 296.756 26.2283 295.099 26.2283H265.862C264.205 26.2283 262.862 27.5715 262.862 29.2283V44.1526C262.862 45.8095 264.205 47.1526 265.862 47.1526H293.256C294.912 47.1526 296.256 48.4958 296.256 50.1526V51.1573C296.256 52.8142 294.912 54.1573 293.256 54.1573H265.862C264.205 54.1573 262.862 55.5005 262.862 57.1573V72.0816C262.862 73.7384 264.205 75.0816 265.862 75.0816H295.099C296.756 75.0816 298.099 76.4247 298.099 78.0816V79.0863C298.099 80.7431 296.756 82.0863 295.099 82.0863H257.405Z" fill="white"/>
<path d="M329.26 82.0863C327.603 82.0863 326.26 80.7431 326.26 79.0863V22.2236C326.26 20.5668 327.603 19.2236 329.26 19.2236H352.281C358.714 19.2236 363.81 20.8401 367.568 24.073C371.327 27.2461 373.206 31.5267 373.206 36.915C373.206 42.2433 371.327 46.4641 367.568 49.5773C363.81 52.6306 358.714 54.1573 352.281 54.1573H337.933C336.277 54.1573 334.933 55.5005 334.933 57.1573V79.0863C334.933 80.7431 333.59 82.0863 331.933 82.0863H329.26ZM334.933 44.6016C334.933 46.2585 336.277 47.6016 337.933 47.6016H351.197C355.244 47.6016 358.461 46.6737 360.846 44.8177C363.231 42.9019 364.424 40.2677 364.424 36.915C364.424 33.3827 363.231 30.5988 360.846 28.5632C358.461 26.5277 355.244 25.5099 351.197 25.5099H337.933C336.277 25.5099 334.933 26.853 334.933 28.5099V44.6016Z" fill="white"/>
<path d="M401.114 82.0863C399.458 82.0863 398.114 80.7431 398.114 79.0863V22.2236C398.114 20.5668 399.458 19.2236 401.114 19.2236H438.808C440.465 19.2236 441.808 20.5668 441.808 22.2236V23.2283C441.808 24.8852 440.465 26.2283 438.808 26.2283H409.571C407.914 26.2283 406.571 27.5715 406.571 29.2283V44.1526C406.571 45.8095 407.914 47.1526 409.571 47.1526H436.965C438.622 47.1526 439.965 48.4958 439.965 50.1526V51.1573C439.965 52.8142 438.622 54.1573 436.965 54.1573H409.571C407.914 54.1573 406.571 55.5005 406.571 57.1573V72.0816C406.571 73.7384 407.914 75.0816 409.571 75.0816H438.808C440.465 75.0816 441.808 76.4247 441.808 78.0816V79.0863C441.808 80.7431 440.465 82.0863 438.808 82.0863H401.114Z" fill="white"/>
<path d="M472.969 82.0863C471.312 82.0863 469.969 80.7431 469.969 79.0863V22.2236C469.969 20.5668 471.312 19.2236 472.969 19.2236H475.709C476.727 19.2236 477.676 19.7398 478.228 20.5945L509.109 68.3463C509.399 68.7654 509.724 68.9151 510.085 68.7953C510.447 68.6157 510.591 68.3164 510.519 67.8973L509.384 62.1693C509.345 61.9772 509.326 61.7818 509.326 61.586V22.2236C509.326 20.5668 510.669 19.2236 512.326 19.2236H515C516.657 19.2236 518 20.5668 518 22.2236V79.0863C518 80.7431 516.657 82.0863 515 82.0863H510.952C509.938 82.0863 508.992 81.5738 508.439 80.7239L479.077 35.6577C478.788 35.1189 478.426 34.9094 477.992 35.0291C477.631 35.1488 477.486 35.4482 477.559 35.9271L478.593 41.4928C478.626 41.6735 478.643 41.8568 478.643 42.0406V79.0863C478.643 80.7431 477.3 82.0863 475.643 82.0863H472.969Z" fill="white"/>
<path fill-rule="evenodd" clip-rule="evenodd" d="M8.20724 82.2965C5.73372 81.568 3.51904 80.5816 1.56724 79.3339C0.207951 78.465 -0.181088 76.7441 0.424341 75.3199C0.92625 74.1393 1.97952 73.4304 3.13532 73.1423C4.2876 72.855 5.58822 72.9706 6.68131 73.4789C6.79447 73.5315 6.90918 73.583 7.02544 73.6333C8.72436 74.3366 10.4945 74.8647 12.3366 75.2174C14.2676 75.5132 15.9367 75.6592 17.3475 75.6592C20.7569 75.6592 23.3933 74.9819 25.3063 73.6803L25.313 73.6758C27.268 72.3915 28.2318 70.6031 28.2318 68.2565V29.2283C28.2318 27.8476 27.1125 26.7283 25.7318 26.7283H14.3843C12.4513 26.7283 10.8843 25.1613 10.8843 23.2283V22.2236C10.8843 20.2906 12.4513 18.7236 14.3843 18.7236H34.6224C36.5554 18.7236 38.1224 20.2906 38.1224 22.2236V68.2565C38.1224 73.0811 36.2066 76.8866 32.3855 79.618C28.6584 82.3338 23.6282 83.6639 17.3475 83.6639C14.6185 83.6639 11.574 83.206 8.21812 82.2996L8.20724 82.2965ZM32.0929 79.2126C35.7792 76.5783 37.6224 72.9263 37.6224 68.2565V22.2236C37.6224 20.5668 36.2792 19.2236 34.6224 19.2236H14.3843C12.7274 19.2236 11.3843 20.5668 11.3843 22.2236V23.2283C11.3843 24.8852 12.7274 26.2283 14.3843 26.2283H25.7318C27.3886 26.2283 28.7318 27.5715 28.7318 29.2283V68.2565C28.7318 70.771 27.6837 72.7167 25.5875 74.0937C23.5637 75.4707 20.817 76.1592 17.3475 76.1592C15.9019 76.1592 14.2033 76.0095 12.2517 75.7102C10.3724 75.351 8.56533 74.8122 6.83059 74.0937C6.709 74.0412 6.58896 73.9874 6.47047 73.9323C4.49483 73.0135 1.73691 73.5104 0.884488 75.5155C0.361405 76.746 0.710021 78.1925 1.83654 78.9126C3.74417 80.1321 5.91482 81.1001 8.34849 81.8169C11.6734 82.7149 14.6731 83.1639 17.3475 83.1639C23.5637 83.1639 28.4788 81.8468 32.0929 79.2126ZM226.195 39.8275L226.196 39.834C226.341 41.4576 226.45 43.2293 226.522 45.1485C226.667 47.0722 226.74 48.9077 226.74 50.655C226.74 52.4022 226.667 54.2378 226.522 56.1615C226.45 58.0807 226.341 59.8523 226.196 61.4759C225.606 67.9454 222.945 73.1037 218.206 76.9072C213.528 80.7191 206.748 82.5863 197.942 82.5863H181.209C179.276 82.5863 177.709 81.0193 177.709 79.0863V22.2236C177.709 20.2906 179.276 18.7236 181.209 18.7236H197.942C206.749 18.7236 213.53 20.5912 218.207 24.4039C222.873 28.2071 225.532 33.3621 226.195 39.8275ZM217.891 76.5184C222.517 72.8065 225.119 67.7775 225.698 61.4314C225.842 59.8149 225.951 58.0488 226.023 56.133C226.167 54.2172 226.24 52.3912 226.24 50.655C226.24 48.9188 226.167 47.0927 226.023 45.1769C225.951 43.2611 225.842 41.495 225.698 39.8785C225.047 33.5324 222.445 28.5034 217.891 24.7915C213.338 21.0796 206.688 19.2236 197.942 19.2236H181.209C179.552 19.2236 178.209 20.5668 178.209 22.2236V79.0863C178.209 80.7431 179.552 82.0863 181.209 82.0863H197.942C206.688 82.0863 213.338 80.2303 217.891 76.5184ZM211.471 71.0413L211.475 71.037C214.345 68.3123 215.995 64.8345 216.418 60.5738L216.418 60.5702C216.634 58.5455 216.741 56.8281 216.741 55.4146V55.402L216.741 55.3894C216.813 53.9624 216.849 52.3844 216.849 50.655C216.849 48.9255 216.813 47.3475 216.741 45.9205L216.741 45.9079V45.8954C216.741 44.4819 216.634 42.7644 216.418 40.7397L216.418 40.7361C215.995 36.4754 214.345 32.9977 211.475 30.2729L211.471 30.2686C208.716 27.5877 204.249 26.22 197.946 26.2793L197.942 26.2793L189.883 26.2793C188.502 26.2793 187.383 27.3986 187.383 28.7793V72.6204C187.383 74.0011 188.502 75.1204 189.883 75.1204H197.942C204.245 75.1204 208.715 73.7239 211.471 71.0413ZM367.887 49.9624L367.884 49.9654C364.01 53.1119 358.791 54.6573 352.281 54.6573H337.933C336.553 54.6573 335.433 55.7766 335.433 57.1573V79.0863C335.433 81.0193 333.866 82.5863 331.933 82.5863H329.26C327.327 82.5863 325.76 81.0193 325.76 79.0863V22.2236C325.76 20.2906 327.327 18.7236 329.26 18.7236H352.281C358.796 18.7236 364.019 20.3617 367.893 23.6924C371.774 26.9702 373.706 31.3961 373.706 36.915C373.706 42.3767 371.772 46.7447 367.887 49.9624ZM367.568 24.073C363.81 20.8401 358.714 19.2236 352.281 19.2236H329.26C327.603 19.2236 326.26 20.5668 326.26 22.2236V79.0863C326.26 80.7431 327.603 82.0863 329.26 82.0863H331.933C333.59 82.0863 334.933 80.7431 334.933 79.0863V57.1573C334.933 55.5005 336.277 54.1573 337.933 54.1573H352.281C358.714 54.1573 363.81 52.6306 367.568 49.5773C371.327 46.4641 373.206 42.2433 373.206 36.915C373.206 31.5267 371.327 27.2461 367.568 24.073ZM478.646 35.9129L478.636 35.8941C478.516 35.6708 478.41 35.5705 478.338 35.529C478.285 35.4985 478.229 35.4851 478.138 35.5077C478.105 35.5198 478.089 35.5314 478.081 35.5376C478.074 35.5437 478.069 35.5499 478.063 35.5608C478.051 35.5867 478.026 35.667 478.052 35.8448C478.052 35.8473 478.053 35.8499 478.053 35.8525L479.084 41.4015C479.123 41.6123 479.143 41.8262 479.143 42.0406V79.0863C479.143 81.0193 477.576 82.5863 475.643 82.5863H472.969C471.036 82.5863 469.469 81.0193 469.469 79.0863V22.2236C469.469 20.2906 471.036 18.7236 472.969 18.7236H475.709C476.897 18.7236 478.003 19.3258 478.648 20.323L509.521 68.0624C509.522 68.0641 509.523 68.0659 509.525 68.0676C509.637 68.2289 509.726 68.2942 509.779 68.3186C509.813 68.334 509.846 68.341 509.896 68.3296C509.974 68.2853 510.002 68.2449 510.014 68.2187C510.03 68.1866 510.049 68.1197 510.027 67.988C510.027 67.9861 510.027 67.9842 510.026 67.9823L508.893 62.2665C508.849 62.0424 508.826 61.8144 508.826 61.586V22.2236C508.826 20.2906 510.393 18.7236 512.326 18.7236H515C516.933 18.7236 518.5 20.2906 518.5 22.2236V79.0863C518.5 81.0193 516.933 82.5863 515 82.5863H510.952C509.769 82.5863 508.666 81.9883 508.02 80.9969L478.646 35.9129ZM510.519 67.8973C510.591 68.3164 510.447 68.6157 510.085 68.7953C509.724 68.9151 509.399 68.7654 509.109 68.3463L478.228 20.5945C477.676 19.7398 476.727 19.2236 475.709 19.2236H472.969C471.312 19.2236 469.969 20.5668 469.969 22.2236V79.0863C469.969 80.7431 471.312 82.0863 472.969 82.0863H475.643C477.3 82.0863 478.643 80.7431 478.643 79.0863V42.0406C478.643 41.8568 478.626 41.6735 478.593 41.4928L477.559 35.9271C477.486 35.4482 477.631 35.1488 477.992 35.0291C478.426 34.9094 478.788 35.1189 479.077 35.6577L508.439 80.7239C508.992 81.5738 509.938 82.0863 510.952 82.0863H515C516.657 82.0863 518 80.7431 518 79.0863V22.2236C518 20.5668 516.657 19.2236 515 19.2236H512.326C510.669 19.2236 509.326 20.5668 509.326 22.2236V61.586C509.326 61.7818 509.345 61.9772 509.384 62.1693L510.519 67.8973ZM253.905 79.0863V22.2236C253.905 20.2906 255.472 18.7236 257.405 18.7236H295.099C297.032 18.7236 298.599 20.2906 298.599 22.2236V23.2283C298.599 25.1613 297.032 26.7283 295.099 26.7283H265.862C264.481 26.7283 263.362 27.8476 263.362 29.2283V44.1526C263.362 45.5333 264.481 46.6526 265.862 46.6526H293.256C295.189 46.6526 296.756 48.2196 296.756 50.1526V51.1573C296.756 53.0903 295.189 54.6573 293.256 54.6573H265.862C264.481 54.6573 263.362 55.7766 263.362 57.1573V72.0816C263.362 73.4623 264.481 74.5816 265.862 74.5816H295.099C297.032 74.5816 298.599 76.1486 298.599 78.0816V79.0863C298.599 81.0193 297.032 82.5863 295.099 82.5863H257.405C255.472 82.5863 253.905 81.0193 253.905 79.0863ZM337.933 47.1016H351.197C355.169 47.1016 358.265 46.1915 360.537 44.4251C362.789 42.6143 363.924 40.131 363.924 36.915C363.924 33.5083 362.781 30.8714 360.522 28.9436C358.25 27.0054 355.161 26.0099 351.197 26.0099H337.933C336.553 26.0099 335.433 27.1292 335.433 28.5099V44.6016C335.433 45.9823 336.553 47.1016 337.933 47.1016ZM360.846 44.8177C358.461 46.6737 355.244 47.6016 351.197 47.6016H337.933C336.277 47.6016 334.933 46.2585 334.933 44.6016V28.5099C334.933 26.853 336.277 25.5099 337.933 25.5099H351.197C355.244 25.5099 358.461 26.5277 360.846 28.5632C363.231 30.5988 364.424 33.3827 364.424 36.915C364.424 40.2677 363.231 42.9019 360.846 44.8177ZM397.614 79.0863V22.2236C397.614 20.2906 399.181 18.7236 401.114 18.7236H438.808C440.741 18.7236 442.308 20.2906 442.308 22.2236V23.2283C442.308 25.1613 440.741 26.7283 438.808 26.7283H409.571C408.191 26.7283 407.071 27.8476 407.071 29.2283V44.1526C407.071 45.5333 408.191 46.6526 409.571 46.6526H436.965C438.898 46.6526 440.465 48.2196 440.465 50.1526V51.1573C440.465 53.0903 438.898 54.6573 436.965 54.6573H409.571C408.191 54.6573 407.071 55.7766 407.071 57.1573V72.0816C407.071 73.4623 408.191 74.5816 409.571 74.5816H438.808C440.741 74.5816 442.308 76.1486 442.308 78.0816V79.0863C442.308 81.0193 440.741 82.5863 438.808 82.5863H401.114C399.181 82.5863 397.614 81.0193 397.614 79.0863ZM189.883 75.6204C188.226 75.6204 186.883 74.2773 186.883 72.6204V28.7793C186.883 27.1225 188.226 25.7793 189.883 25.7793H197.942C204.302 25.7194 208.928 27.0964 211.82 29.9103C214.783 32.7241 216.482 36.3163 216.915 40.6867C217.132 42.7223 217.241 44.4585 217.241 45.8954C217.313 47.3322 217.349 48.9188 217.349 50.655C217.349 52.3912 217.313 53.9777 217.241 55.4146C217.241 56.8514 217.132 58.5876 216.915 60.6232C216.482 64.9936 214.783 68.5858 211.82 71.3996C208.928 74.2135 204.302 75.6204 197.942 75.6204H189.883ZM257.405 82.0863C255.748 82.0863 254.405 80.7431 254.405 79.0863V22.2236C254.405 20.5668 255.748 19.2236 257.405 19.2236H295.099C296.756 19.2236 298.099 20.5668 298.099 22.2236V23.2283C298.099 24.8852 296.756 26.2283 295.099 26.2283H265.862C264.205 26.2283 262.862 27.5715 262.862 29.2283V44.1526C262.862 45.8095 264.205 47.1526 265.862 47.1526H293.256C294.912 47.1526 296.256 48.4958 296.256 50.1526V51.1573C296.256 52.8142 294.912 54.1573 293.256 54.1573H265.862C264.205 54.1573 262.862 55.5005 262.862 57.1573V72.0816C262.862 73.7384 264.205 75.0816 265.862 75.0816H295.099C296.756 75.0816 298.099 76.4247 298.099 78.0816V79.0863C298.099 80.7431 296.756 82.0863 295.099 82.0863H257.405ZM401.114 82.0863C399.458 82.0863 398.114 80.7431 398.114 79.0863V22.2236C398.114 20.5668 399.458 19.2236 401.114 19.2236H438.808C440.465 19.2236 441.808 20.5668 441.808 22.2236V23.2283C441.808 24.8852 440.465 26.2283 438.808 26.2283H409.571C407.914 26.2283 406.571 27.5715 406.571 29.2283V44.1526C406.571 45.8095 407.914 47.1526 409.571 47.1526H436.965C438.622 47.1526 439.965 48.4958 439.965 50.1526V51.1573C439.965 52.8142 438.622 54.1573 436.965 54.1573H409.571C407.914 54.1573 406.571 55.5005 406.571 57.1573V72.0816C406.571 73.7384 407.914 75.0816 409.571 75.0816H438.808C440.465 75.0816 441.808 76.4247 441.808 78.0816V79.0863C441.808 80.7431 440.465 82.0863 438.808 82.0863H401.114Z" fill="white"/>
</g>
<defs>
<clipPath id="clip0_0_7">
<rect width="518" height="103" fill="white"/>
</clipPath>
</defs>
</svg>
